<svg width="378" height="84" viewBox="0 0 378 84" fill="none" xmlns="http://www.w3.org/2000/svg">
<rect width="378" height="84" rx="14" fill="#111827"/>
<path d="M44.397 53V52.9316C44.4198 52.8747 44.4368 52.7892 44.4482 52.6753C44.4596 52.5614 44.4653 52.4588 44.4653 52.3677C44.4653 52.0145 44.4141 51.6271 44.3115 51.2056C44.2204 50.7726 44.0381 50.2371 43.7646 49.5991L41.6968 44.9507C41.0588 44.9279 40.21 44.9165 39.1504 44.9165C38.0908 44.9165 36.9458 44.9165 35.7153 44.9165C34.8153 44.9165 33.9437 44.9165 33.1006 44.9165C32.2689 44.9165 31.5169 44.9279 30.8447 44.9507L28.8794 49.4624C28.7085 49.884 28.5262 50.3454 28.3325 50.8467C28.1388 51.348 28.042 51.855 28.042 52.3677C28.042 52.5158 28.0534 52.6411 28.0762 52.7437C28.099 52.8348 28.1217 52.8975 28.1445 52.9316V53H24.6582V52.9316C24.8633 52.7152 25.1196 52.3335 25.4272 51.7866C25.7349 51.2284 26.071 50.5334 26.4355 49.7017L36.228 27.9805H37.5952L46.875 48.8643C47.0915 49.3542 47.3136 49.8327 47.5415 50.2998C47.7808 50.7555 48.0029 51.1657 48.208 51.5303C48.4131 51.8949 48.5954 52.2025 48.7549 52.4531C48.9144 52.7038 49.0226 52.8633 49.0796 52.9316V53H44.397ZM33.3228 43.4468C33.9836 43.4468 34.6615 43.4468 35.3564 43.4468C36.0514 43.4354 36.7293 43.4297 37.3901 43.4297C38.0623 43.4183 38.7061 43.4126 39.3213 43.4126C39.9365 43.4012 40.4948 43.3898 40.9961 43.3784L36.1938 32.5264L31.4771 43.4468H33.3228ZM64.8877 41.584C64.8877 40.57 64.882 39.687 64.8706 38.9351C64.8592 38.1831 64.8364 37.5337 64.8022 36.9868C64.7681 36.4399 64.7282 35.9842 64.6826 35.6196C64.637 35.2437 64.5801 34.936 64.5117 34.6968V34.6284H67.0239V34.6968C66.9556 34.936 66.8986 35.2437 66.853 35.6196C66.8075 35.9956 66.7676 36.4627 66.7334 37.021C66.6992 37.5679 66.6764 38.223 66.665 38.9863C66.6536 39.7383 66.6479 40.627 66.6479 41.6523V46.5571C66.6479 47.7876 66.4543 48.8358 66.0669 49.7017C65.6909 50.5675 65.1668 51.2796 64.4946 51.8379C63.8224 52.3848 63.0192 52.7835 62.085 53.0342C61.1621 53.2962 60.1481 53.4272 59.043 53.4272C57.9264 53.4272 56.8896 53.3019 55.9326 53.0513C54.9756 52.812 54.1439 52.4246 53.4375 51.8892C52.7425 51.3537 52.1899 50.6587 51.7798 49.8042C51.381 48.9497 51.1816 47.9129 51.1816 46.6938V41.6523C51.1816 40.627 51.1702 39.7383 51.1475 38.9863C51.1247 38.223 51.0905 37.5679 51.0449 37.021C50.9993 36.4627 50.9481 35.9956 50.8911 35.6196C50.8341 35.2437 50.7658 34.936 50.686 34.6968V34.6284H54.6338V34.6968C54.554 34.936 54.4857 35.2437 54.4287 35.6196C54.3717 35.9842 54.3205 36.4399 54.2749 36.9868C54.2407 37.5337 54.2122 38.1831 54.1895 38.9351C54.1667 39.687 54.1553 40.57 54.1553 41.584V46.6938C54.1553 47.7078 54.3091 48.5452 54.6167 49.2061C54.9243 49.8555 55.3288 50.3739 55.8301 50.7612C56.3314 51.1486 56.901 51.422 57.5391 51.5815C58.1771 51.7297 58.8322 51.8037 59.5044 51.8037C60.188 51.8037 60.8488 51.7297 61.4868 51.5815C62.1362 51.422 62.7116 51.1486 63.2129 50.7612C63.7256 50.3739 64.13 49.8555 64.4263 49.2061C64.7339 48.5452 64.8877 47.7078 64.8877 46.6938V41.584ZM76.167 35.8931C75.1302 35.8931 74.1846 35.9386 73.3301 36.0298C72.487 36.1209 71.7578 36.2178 71.1426 36.3203C70.4362 36.4456 69.7982 36.5824 69.2285 36.7305L69.5703 34.5259C69.7412 34.5487 70.0203 34.5658 70.4077 34.5771C70.7951 34.5885 71.1995 34.5999 71.6211 34.6113C72.054 34.6113 72.4585 34.617 72.8345 34.6284C73.2218 34.6284 73.4896 34.6284 73.6377 34.6284H81.7212C81.8579 34.6284 82.1086 34.6284 82.4731 34.6284C82.8491 34.617 83.2479 34.6113 83.6694 34.6113C84.091 34.5999 84.4954 34.5885 84.8828 34.5771C85.2702 34.5658 85.5493 34.5487 85.7202 34.5259L86.062 36.7305C85.5151 36.5824 84.8885 36.4456 84.1821 36.3203C83.5783 36.2178 82.8491 36.1209 81.9946 36.0298C81.1515 35.9386 80.2002 35.8931 79.1406 35.8931V45.959C79.1406 46.9844 79.152 47.8787 79.1748 48.6421C79.1976 49.4054 79.2261 50.0662 79.2603 50.6245C79.3058 51.1714 79.3571 51.6328 79.4141 52.0088C79.471 52.3848 79.5394 52.6924 79.6191 52.9316V53H75.6714V52.9316C75.7511 52.6924 75.8195 52.3848 75.8765 52.0088C75.9334 51.6328 75.9847 51.1714 76.0303 50.6245C76.0758 50.0662 76.11 49.4054 76.1328 48.6421C76.1556 47.8787 76.167 46.9844 76.167 45.959V35.8931ZM101.58 44.2158C101.226 44.2158 100.788 44.2158 100.264 44.2158C99.7396 44.2044 99.1699 44.193 98.5547 44.1816C97.9395 44.1702 97.3014 44.1646 96.6406 44.1646C95.9798 44.1532 95.3418 44.1475 94.7266 44.1475C94.1455 44.1475 93.5986 44.1532 93.0859 44.1646C92.5846 44.1759 92.1517 44.193 91.7871 44.2158V45.959C91.7871 46.9844 91.7985 47.8787 91.8213 48.6421C91.8441 49.4054 91.8726 50.0662 91.9067 50.6245C91.9523 51.1714 92.0036 51.6328 92.0605 52.0088C92.1175 52.3848 92.1859 52.6924 92.2656 52.9316V53H88.3179V52.9316C88.3976 52.6924 88.466 52.3848 88.5229 52.0088C88.5913 51.6328 88.6426 51.1714 88.6768 50.6245C88.7223 50.0662 88.7565 49.4054 88.7793 48.6421C88.8021 47.8787 88.8135 46.9844 88.8135 45.959V41.6523C88.8135 40.627 88.8021 39.7383 88.7793 38.9863C88.7565 38.223 88.7223 37.5679 88.6768 37.021C88.6426 36.4627 88.5913 35.9956 88.5229 35.6196C88.466 35.2437 88.3976 34.936 88.3179 34.6968V34.6284H92.2656V34.6968C92.1859 34.936 92.1175 35.2437 92.0605 35.6196C92.0036 35.9956 91.9523 36.4627 91.9067 37.021C91.8726 37.5679 91.8441 38.223 91.8213 38.9863C91.7985 39.7383 91.7871 40.627 91.7871 41.6523V42.8145H94.2993C94.9259 42.8145 95.5868 42.8145 96.2817 42.8145C96.9767 42.8031 97.6489 42.7974 98.2983 42.7974C98.9478 42.786 99.5573 42.7746 100.127 42.7632C100.697 42.7518 101.181 42.7347 101.58 42.7119V41.6523C101.58 40.627 101.568 39.7383 101.545 38.9863C101.523 38.223 101.488 37.5679 101.443 37.021C101.409 36.4627 101.363 35.9956 101.306 35.6196C101.249 35.2437 101.181 34.936 101.101 34.6968V34.6284H105.049V34.6968C104.969 34.936 104.895 35.2437 104.827 35.6196C104.77 35.9956 104.718 36.4627 104.673 37.021C104.639 37.5679 104.61 38.223 104.587 38.9863C104.565 39.7383 104.553 40.627 104.553 41.6523V45.959C104.553 46.9844 104.565 47.8787 104.587 48.6421C104.61 49.4054 104.639 50.0662 104.673 50.6245C104.718 51.1714 104.77 51.6328 104.827 52.0088C104.895 52.3848 104.969 52.6924 105.049 52.9316V53H101.101V52.9316C101.181 52.6924 101.249 52.3848 101.306 52.0088C101.363 51.6328 101.409 51.1714 101.443 50.6245C101.488 50.0662 101.523 49.4054 101.545 48.6421C101.568 47.8787 101.58 46.9844 101.58 45.959V44.2158ZM109.543 34.6284C110.66 34.6284 111.805 34.6284 112.979 34.6284C114.152 34.617 115.24 34.6056 116.243 34.5942C117.245 34.5715 118.105 34.5487 118.823 34.5259C119.552 34.5031 120.031 34.4689 120.259 34.4233L119.592 36.269C119.285 36.1893 118.937 36.1152 118.55 36.0469C118.208 35.9899 117.792 35.9386 117.302 35.8931C116.824 35.8361 116.265 35.8076 115.627 35.8076C115.4 35.8076 115.138 35.819 114.841 35.8418C114.545 35.8532 114.26 35.8703 113.987 35.8931C113.668 35.9159 113.343 35.9386 113.013 35.9614V42.7119C113.936 42.7005 114.767 42.6777 115.508 42.6436C116.248 42.6094 116.881 42.5638 117.405 42.5068C118.02 42.4613 118.561 42.3986 119.028 42.3188L118.618 44.3525C117.992 44.2728 117.359 44.2044 116.721 44.1475C116.174 44.0905 115.57 44.0449 114.91 44.0107C114.249 43.9652 113.617 43.9424 113.013 43.9424V51.7012C114.072 51.7012 115.046 51.6613 115.935 51.5815C116.824 51.4904 117.598 51.3936 118.259 51.291C119.034 51.1657 119.735 51.0233 120.361 50.8638L119.968 53.1025C119.797 53.0911 119.518 53.0741 119.131 53.0513C118.755 53.0399 118.356 53.0285 117.935 53.0171C117.524 53.0171 117.137 53.0114 116.772 53C116.408 53 116.157 53 116.021 53H109.543V52.9316C109.623 52.6924 109.692 52.3848 109.749 52.0088C109.817 51.6328 109.868 51.1714 109.902 50.6245C109.948 50.0662 109.982 49.4054 110.005 48.6421C110.028 47.8787 110.039 46.9844 110.039 45.959V41.6523C110.039 40.627 110.028 39.7383 110.005 38.9863C109.982 38.223 109.948 37.5679 109.902 37.021C109.868 36.4627 109.817 35.9956 109.749 35.6196C109.692 35.2437 109.623 34.936 109.543 34.6968V34.6284ZM140.596 53.2393H139.929L126.343 39.875V45.959C126.343 46.9844 126.348 47.8787 126.36 48.6421C126.371 49.4054 126.388 50.0662 126.411 50.6245C126.445 51.1714 126.485 51.6328 126.531 52.0088C126.588 52.3848 126.656 52.6924 126.736 52.9316V53H124.172V52.9316C124.252 52.6924 124.32 52.3848 124.377 52.0088C124.434 51.6328 124.48 51.1714 124.514 50.6245C124.548 50.0662 124.571 49.4054 124.583 48.6421C124.594 47.8787 124.6 46.9844 124.6 45.959V41.6523C124.6 40.627 124.594 39.7383 124.583 38.9863C124.571 38.223 124.548 37.5679 124.514 37.021C124.48 36.4627 124.434 35.9956 124.377 35.6196C124.32 35.2437 124.252 34.936 124.172 34.6968V34.6284H125.232L138.835 48.061V41.6523C138.835 40.627 138.83 39.7383 138.818 38.9863C138.807 38.223 138.784 37.5679 138.75 37.021C138.727 36.4627 138.693 35.9956 138.647 35.6196C138.602 35.2437 138.539 34.936 138.459 34.6968V34.6284H141.006V34.6968C140.926 34.936 140.858 35.2437 140.801 35.6196C140.755 35.9956 140.715 36.4627 140.681 37.021C140.647 37.5679 140.624 38.223 140.613 38.9863C140.601 39.7383 140.596 40.627 140.596 41.6523V53.2393ZM150.2 35.8931C149.163 35.8931 148.218 35.9386 147.363 36.0298C146.52 36.1209 145.791 36.2178 145.176 36.3203C144.469 36.4456 143.831 36.5824 143.262 36.7305L143.604 34.5259C143.774 34.5487 144.054 34.5658 144.441 34.5771C144.828 34.5885 145.233 34.5999 145.654 34.6113C146.087 34.6113 146.492 34.617 146.868 34.6284C147.255 34.6284 147.523 34.6284 147.671 34.6284H155.754C155.891 34.6284 156.142 34.6284 156.506 34.6284C156.882 34.617 157.281 34.6113 157.703 34.6113C158.124 34.5999 158.529 34.5885 158.916 34.5771C159.303 34.5658 159.583 34.5487 159.753 34.5259L160.095 36.7305C159.548 36.5824 158.922 36.4456 158.215 36.3203C157.611 36.2178 156.882 36.1209 156.028 36.0298C155.185 35.9386 154.233 35.8931 153.174 35.8931V45.959C153.174 46.9844 153.185 47.8787 153.208 48.6421C153.231 49.4054 153.259 50.0662 153.293 50.6245C153.339 51.1714 153.39 51.6328 153.447 52.0088C153.504 52.3848 153.573 52.6924 153.652 52.9316V53H149.705V52.9316C149.784 52.6924 149.853 52.3848 149.91 52.0088C149.967 51.6328 150.018 51.1714 150.063 50.6245C150.109 50.0662 150.143 49.4054 150.166 48.6421C150.189 47.8787 150.2 46.9844 150.2 45.959V35.8931ZM162.983 41.6523C162.983 40.627 162.972 39.7383 162.949 38.9863C162.926 38.223 162.892 37.5679 162.847 37.021C162.812 36.4627 162.761 35.9956 162.693 35.6196C162.636 35.2437 162.568 34.936 162.488 34.6968V34.6284H166.453V34.6968C166.373 34.936 166.299 35.2437 166.23 35.6196C166.174 35.9956 166.122 36.4627 166.077 37.021C166.042 37.5679 166.014 38.223 165.991 38.9863C165.968 39.7383 165.957 40.627 165.957 41.6523V45.959C165.957 46.9844 165.968 47.8787 165.991 48.6421C166.014 49.4054 166.042 50.0662 166.077 50.6245C166.122 51.1714 166.174 51.6328 166.23 52.0088C166.299 52.3848 166.373 52.6924 166.453 52.9316V53H162.488V52.9316C162.568 52.6924 162.636 52.3848 162.693 52.0088C162.761 51.6328 162.812 51.1714 162.847 50.6245C162.892 50.0662 162.926 49.4054 162.949 48.6421C162.972 47.8787 162.983 46.9844 162.983 45.959V41.6523ZM186.636 49.189L185.303 52.3677C184.972 52.5158 184.596 52.6525 184.175 52.7778C183.765 52.8918 183.337 52.9886 182.893 53.0684C182.449 53.1481 181.993 53.2051 181.526 53.2393C181.07 53.2848 180.637 53.3076 180.227 53.3076C178.792 53.3076 177.458 53.0968 176.228 52.6753C175.009 52.2537 173.955 51.6385 173.066 50.8296C172.178 50.0093 171.483 49.0067 170.981 47.8218C170.48 46.6369 170.229 45.2811 170.229 43.7544C170.229 42.41 170.492 41.1624 171.016 40.0117C171.54 38.861 172.263 37.8641 173.186 37.021C174.109 36.1665 175.197 35.5 176.45 35.0215C177.715 34.543 179.082 34.3037 180.552 34.3037C180.882 34.3037 181.23 34.3208 181.594 34.355C181.97 34.3778 182.34 34.4176 182.705 34.4746C183.07 34.5316 183.423 34.5999 183.765 34.6797C184.106 34.748 184.425 34.8221 184.722 34.9019L186.003 37.978L185.798 38.0977C185.491 37.7217 185.12 37.3742 184.688 37.0552C184.266 36.7362 183.799 36.4684 183.286 36.252C182.785 36.0241 182.255 35.8475 181.697 35.7222C181.139 35.5968 180.569 35.5342 179.988 35.5342C179.042 35.5342 178.176 35.6994 177.39 36.0298C176.615 36.3602 175.949 36.8444 175.391 37.4824C174.844 38.109 174.417 38.8781 174.109 39.7896C173.801 40.701 173.647 41.7321 173.647 42.8828C173.647 44.1816 173.796 45.395 174.092 46.5229C174.388 47.6395 174.832 48.6136 175.425 49.4453C176.017 50.2656 176.758 50.915 177.646 51.3936C178.535 51.8607 179.572 52.0942 180.757 52.0942C181.326 52.0942 181.885 52.0259 182.432 51.8892C182.99 51.741 183.514 51.536 184.004 51.2739C184.505 51.0119 184.961 50.6986 185.371 50.334C185.781 49.958 186.134 49.5422 186.431 49.0864L186.636 49.189ZM200.923 47.2236C200.615 47.2236 200.228 47.2236 199.761 47.2236C199.305 47.2236 198.804 47.2236 198.257 47.2236C197.71 47.2236 197.146 47.2236 196.565 47.2236C195.984 47.2236 195.431 47.2293 194.907 47.2407C194.383 47.2407 193.905 47.2464 193.472 47.2578C193.039 47.2578 192.703 47.2578 192.463 47.2578L191.831 48.5908C191.558 49.1377 191.324 49.6162 191.13 50.0264C190.937 50.4251 190.777 50.7783 190.652 51.0859C190.527 51.3936 190.435 51.6613 190.378 51.8892C190.321 52.1056 190.293 52.3107 190.293 52.5044C190.293 52.6297 190.299 52.7266 190.31 52.7949C190.321 52.8519 190.339 52.8975 190.361 52.9316V53H187.354V52.9316C187.433 52.8519 187.559 52.681 187.729 52.4189C187.9 52.1455 188.094 51.8151 188.311 51.4277C188.538 51.0404 188.778 50.6017 189.028 50.1118C189.29 49.6219 189.547 49.1149 189.797 48.5908L196.77 34.2012H198.052L204.888 48.5908C205.15 49.1377 205.412 49.6618 205.674 50.1631C205.947 50.6644 206.198 51.1144 206.426 51.5132C206.654 51.9006 206.853 52.2253 207.024 52.4873C207.195 52.738 207.309 52.8861 207.366 52.9316V53H202.991C203.014 52.9089 203.025 52.8291 203.025 52.7607C203.025 52.681 203.025 52.5955 203.025 52.5044C203.025 52.2537 202.968 51.9518 202.854 51.5986C202.751 51.2454 202.62 50.8866 202.461 50.522C202.313 50.146 202.153 49.7871 201.982 49.4453C201.823 49.1035 201.692 48.8187 201.589 48.5908L200.923 47.2236ZM193.13 45.8906H194.172C194.651 45.8906 195.158 45.8906 195.693 45.8906C196.24 45.8792 196.787 45.8735 197.334 45.8735C197.881 45.8735 198.411 45.8735 198.923 45.8735C199.436 45.8621 199.897 45.8564 200.308 45.8564L196.77 38.3027L193.13 45.8906ZM213.193 35.8931C212.157 35.8931 211.211 35.9386 210.356 36.0298C209.513 36.1209 208.784 36.2178 208.169 36.3203C207.463 36.4456 206.825 36.5824 206.255 36.7305L206.597 34.5259C206.768 34.5487 207.047 34.5658 207.434 34.5771C207.821 34.5885 208.226 34.5999 208.647 34.6113C209.08 34.6113 209.485 34.617 209.861 34.6284C210.248 34.6284 210.516 34.6284 210.664 34.6284H218.748C218.884 34.6284 219.135 34.6284 219.5 34.6284C219.875 34.617 220.274 34.6113 220.696 34.6113C221.117 34.5999 221.522 34.5885 221.909 34.5771C222.297 34.5658 222.576 34.5487 222.747 34.5259L223.088 36.7305C222.542 36.5824 221.915 36.4456 221.208 36.3203C220.605 36.2178 219.875 36.1209 219.021 36.0298C218.178 35.9386 217.227 35.8931 216.167 35.8931V45.959C216.167 46.9844 216.178 47.8787 216.201 48.6421C216.224 49.4054 216.252 50.0662 216.287 50.6245C216.332 51.1714 216.383 51.6328 216.44 52.0088C216.497 52.3848 216.566 52.6924 216.646 52.9316V53H212.698V52.9316C212.778 52.6924 212.846 52.3848 212.903 52.0088C212.96 51.6328 213.011 51.1714 213.057 50.6245C213.102 50.0662 213.136 49.4054 213.159 48.6421C213.182 47.8787 213.193 46.9844 213.193 45.959V35.8931ZM225.977 41.6523C225.977 40.627 225.965 39.7383 225.942 38.9863C225.92 38.223 225.885 37.5679 225.84 37.021C225.806 36.4627 225.754 35.9956 225.686 35.6196C225.629 35.2437 225.561 34.936 225.481 34.6968V34.6284H229.446V34.6968C229.366 34.936 229.292 35.2437 229.224 35.6196C229.167 35.9956 229.115 36.4627 229.07 37.021C229.036 37.5679 229.007 38.223 228.984 38.9863C228.962 39.7383 228.95 40.627 228.95 41.6523V45.959C228.95 46.9844 228.962 47.8787 228.984 48.6421C229.007 49.4054 229.036 50.0662 229.07 50.6245C229.115 51.1714 229.167 51.6328 229.224 52.0088C229.292 52.3848 229.366 52.6924 229.446 52.9316V53H225.481V52.9316C225.561 52.6924 225.629 52.3848 225.686 52.0088C225.754 51.6328 225.806 51.1714 225.84 50.6245C225.885 50.0662 225.92 49.4054 225.942 48.6421C225.965 47.8787 225.977 46.9844 225.977 45.959V41.6523ZM233.223 43.7544C233.223 42.41 233.473 41.1624 233.975 40.0117C234.487 38.861 235.182 37.8641 236.06 37.021C236.937 36.1665 237.974 35.5 239.17 35.0215C240.366 34.543 241.648 34.3037 243.015 34.3037C244.36 34.3037 245.624 34.5316 246.809 34.9873C248.005 35.4316 249.042 36.0697 249.919 36.9014C250.808 37.7331 251.509 38.7414 252.021 39.9263C252.534 41.1112 252.791 42.4385 252.791 43.9082C252.791 45.1273 252.574 46.3065 252.141 47.4458C251.708 48.5737 251.076 49.5763 250.244 50.4536C249.412 51.3195 248.387 52.0145 247.168 52.5386C245.949 53.0513 244.553 53.3076 242.981 53.3076C241.648 53.3076 240.389 53.0854 239.204 52.6411C238.019 52.1968 236.982 51.5645 236.094 50.7441C235.205 49.9124 234.504 48.9098 233.992 47.7363C233.479 46.5514 233.223 45.2241 233.223 43.7544ZM243.408 52.0942C244.274 52.0942 245.072 51.9233 245.801 51.5815C246.53 51.2397 247.157 50.7498 247.681 50.1118C248.216 49.4738 248.626 48.6991 248.911 47.7876C249.207 46.8647 249.355 45.828 249.355 44.6772C249.355 43.367 249.213 42.1536 248.928 41.0371C248.655 39.9206 248.233 38.9578 247.664 38.1489C247.105 37.3286 246.405 36.6906 245.562 36.2349C244.718 35.7677 243.733 35.5342 242.605 35.5342C241.739 35.5342 240.942 35.6994 240.212 36.0298C239.483 36.3602 238.851 36.8387 238.315 37.4653C237.791 38.092 237.381 38.861 237.085 39.7725C236.789 40.6839 236.641 41.7207 236.641 42.8828C236.641 44.1816 236.783 45.395 237.068 46.5229C237.364 47.6395 237.791 48.6136 238.35 49.4453C238.919 50.2656 239.626 50.915 240.469 51.3936C241.312 51.8607 242.292 52.0942 243.408 52.0942ZM272.7 53.2393H272.034L258.447 39.875V45.959C258.447 46.9844 258.453 47.8787 258.464 48.6421C258.476 49.4054 258.493 50.0662 258.516 50.6245C258.55 51.1714 258.59 51.6328 258.635 52.0088C258.692 52.3848 258.761 52.6924 258.84 52.9316V53H256.277V52.9316C256.357 52.6924 256.425 52.3848 256.482 52.0088C256.539 51.6328 256.584 51.1714 256.619 50.6245C256.653 50.0662 256.676 49.4054 256.687 48.6421C256.698 47.8787 256.704 46.9844 256.704 45.959V41.6523C256.704 40.627 256.698 39.7383 256.687 38.9863C256.676 38.223 256.653 37.5679 256.619 37.021C256.584 36.4627 256.539 35.9956 256.482 35.6196C256.425 35.2437 256.357 34.936 256.277 34.6968V34.6284H257.336L270.94 48.061V41.6523C270.94 40.627 270.934 39.7383 270.923 38.9863C270.911 38.223 270.889 37.5679 270.854 37.021C270.832 36.4627 270.798 35.9956 270.752 35.6196C270.706 35.2437 270.644 34.936 270.564 34.6968V34.6284H273.11V34.6968C273.031 34.936 272.962 35.2437 272.905 35.6196C272.86 35.9956 272.82 36.4627 272.786 37.021C272.751 37.5679 272.729 38.223 272.717 38.9863C272.706 39.7383 272.7 40.627 272.7 41.6523V53.2393ZM305.256 53V52.9316C305.279 52.8747 305.296 52.7892 305.308 52.6753C305.319 52.5614 305.325 52.4588 305.325 52.3677C305.325 52.0145 305.273 51.6271 305.171 51.2056C305.08 50.7726 304.897 50.2371 304.624 49.5991L302.556 44.9507C301.918 44.9279 301.069 44.9165 300.01 44.9165C298.95 44.9165 297.805 44.9165 296.575 44.9165C295.675 44.9165 294.803 44.9165 293.96 44.9165C293.128 44.9165 292.376 44.9279 291.704 44.9507L289.739 49.4624C289.568 49.884 289.386 50.3454 289.192 50.8467C288.998 51.348 288.901 51.855 288.901 52.3677C288.901 52.5158 288.913 52.6411 288.936 52.7437C288.958 52.8348 288.981 52.8975 289.004 52.9316V53H285.518V52.9316C285.723 52.7152 285.979 52.3335 286.287 51.7866C286.594 51.2284 286.93 50.5334 287.295 49.7017L297.087 27.9805H298.455L307.734 48.8643C307.951 49.3542 308.173 49.8327 308.401 50.2998C308.64 50.7555 308.862 51.1657 309.067 51.5303C309.272 51.8949 309.455 52.2025 309.614 52.4531C309.774 52.7038 309.882 52.8633 309.939 52.9316V53H305.256ZM294.182 43.4468C294.843 43.4468 295.521 43.4468 296.216 43.4468C296.911 43.4354 297.589 43.4297 298.25 43.4297C298.922 43.4183 299.565 43.4126 300.181 43.4126C300.796 43.4012 301.354 43.3898 301.855 43.3784L297.053 32.5264L292.336 43.4468H294.182ZM315.322 44.6772C315.55 44.7114 315.772 44.7456 315.989 44.7798C316.217 44.8026 316.439 44.814 316.655 44.814C317.305 44.814 317.897 44.7171 318.433 44.5234C318.979 44.3184 319.441 44.0164 319.817 43.6177C320.204 43.2189 320.5 42.7119 320.706 42.0967C320.922 41.4814 321.03 40.7637 321.03 39.9434C321.03 39.2826 320.956 38.6844 320.808 38.1489C320.66 37.6134 320.438 37.1577 320.142 36.7817C319.857 36.3944 319.498 36.0981 319.065 35.8931C318.632 35.6766 318.131 35.5684 317.561 35.5684C317.196 35.5684 316.872 35.5854 316.587 35.6196C316.313 35.6424 316.08 35.6709 315.886 35.7051C315.67 35.7507 315.482 35.7962 315.322 35.8418V44.6772ZM315.322 45.8564C315.322 46.8818 315.334 47.7819 315.356 48.5566C315.379 49.3314 315.408 50.0036 315.442 50.5732C315.487 51.1315 315.539 51.6043 315.596 51.9917C315.653 52.3791 315.721 52.6924 315.801 52.9316V53H311.853V52.9316C311.933 52.6924 312.001 52.3848 312.058 52.0088C312.126 51.6328 312.178 51.1714 312.212 50.6245C312.257 50.0662 312.292 49.4054 312.314 48.6421C312.337 47.8787 312.349 46.9844 312.349 45.959V41.6523C312.349 40.627 312.337 39.7383 312.314 38.9863C312.292 38.223 312.257 37.5679 312.212 37.021C312.178 36.4627 312.126 35.9956 312.058 35.6196C312.001 35.2437 311.933 34.936 311.853 34.6968V34.6284C312.104 34.6398 312.354 34.6512 312.605 34.6626C312.821 34.674 313.049 34.6854 313.289 34.6968C313.539 34.6968 313.773 34.6968 313.989 34.6968C314.354 34.6968 314.889 34.6626 315.596 34.5942C316.313 34.5259 317.157 34.4917 318.125 34.4917C319.014 34.4917 319.84 34.6113 320.603 34.8506C321.366 35.0785 322.021 35.4202 322.568 35.876C323.127 36.3317 323.56 36.89 323.867 37.5508C324.186 38.2002 324.346 38.9521 324.346 39.8066C324.346 40.8092 324.152 41.6979 323.765 42.4727C323.377 43.236 322.847 43.8797 322.175 44.4038C321.514 44.9165 320.734 45.3039 319.834 45.5659C318.934 45.828 317.977 45.959 316.963 45.959C316.427 45.959 315.881 45.9248 315.322 45.8564ZM330.771 44.6772C330.999 44.7114 331.222 44.7456 331.438 44.7798C331.666 44.8026 331.888 44.814 332.104 44.814C332.754 44.814 333.346 44.7171 333.882 44.5234C334.429 44.3184 334.89 44.0164 335.266 43.6177C335.653 43.2189 335.95 42.7119 336.155 42.0967C336.371 41.4814 336.479 40.7637 336.479 39.9434C336.479 39.2826 336.405 38.6844 336.257 38.1489C336.109 37.6134 335.887 37.1577 335.591 36.7817C335.306 36.3944 334.947 36.0981 334.514 35.8931C334.081 35.6766 333.58 35.5684 333.01 35.5684C332.646 35.5684 332.321 35.5854 332.036 35.6196C331.763 35.6424 331.529 35.6709 331.335 35.7051C331.119 35.7507 330.931 35.7962 330.771 35.8418V44.6772ZM330.771 45.8564C330.771 46.8818 330.783 47.7819 330.806 48.5566C330.828 49.3314 330.857 50.0036 330.891 50.5732C330.937 51.1315 330.988 51.6043 331.045 51.9917C331.102 52.3791 331.17 52.6924 331.25 52.9316V53H327.302V52.9316C327.382 52.6924 327.45 52.3848 327.507 52.0088C327.576 51.6328 327.627 51.1714 327.661 50.6245C327.707 50.0662 327.741 49.4054 327.764 48.6421C327.786 47.8787 327.798 46.9844 327.798 45.959V41.6523C327.798 40.627 327.786 39.7383 327.764 38.9863C327.741 38.223 327.707 37.5679 327.661 37.021C327.627 36.4627 327.576 35.9956 327.507 35.6196C327.45 35.2437 327.382 34.936 327.302 34.6968V34.6284C327.553 34.6398 327.804 34.6512 328.054 34.6626C328.271 34.674 328.499 34.6854 328.738 34.6968C328.988 34.6968 329.222 34.6968 329.438 34.6968C329.803 34.6968 330.339 34.6626 331.045 34.5942C331.763 34.5259 332.606 34.4917 333.574 34.4917C334.463 34.4917 335.289 34.6113 336.052 34.8506C336.816 35.0785 337.471 35.4202 338.018 35.876C338.576 36.3317 339.009 36.89 339.316 37.5508C339.635 38.2002 339.795 38.9521 339.795 39.8066C339.795 40.8092 339.601 41.6979 339.214 42.4727C338.826 43.236 338.297 43.8797 337.625 44.4038C336.964 44.9165 336.183 45.3039 335.283 45.5659C334.383 45.828 333.426 45.959 332.412 45.959C331.877 45.959 331.33 45.9248 330.771 45.8564Z" fill="white"/>
</svg>
